<svg width="21" height="20" viewBox="0 0 21 20" fill="none" xmlns="http://www.w3.org/2000/svg">
<path fill-rule="evenodd" clip-rule="evenodd" d="M12.3743 2.08333C12.3743 1.96827 12.2811 1.875 12.166 1.875H6.33268C5.06703 1.875 4.04102 2.90102 4.04102 4.16667V15.8333C4.04102 17.099 5.06703 18.125 6.33268 18.125H14.666C15.9317 18.125 16.9577 17.099 16.9577 15.8333V7.62255C16.9577 7.50749 16.8644 7.41422 16.7493 7.41422H12.9993C12.6542 7.41422 12.3743 7.13439 12.3743 6.78922V2.08333ZM12.9993 10.2083C13.3445 10.2083 13.6243 10.4882 13.6243 10.8333C13.6243 11.1785 13.3445 11.4583 12.9993 11.4583H7.99935C7.65417 11.4583 7.37435 11.1785 7.37435 10.8333C7.37435 10.4882 7.65417 10.2083 7.99935 10.2083H12.9993ZM12.9993 13.5417C13.3445 13.5417 13.6243 13.8215 13.6243 14.1667C13.6243 14.5118 13.3445 14.7917 12.9993 14.7917H7.99935C7.65417 14.7917 7.37435 14.5118 7.37435 14.1667C7.37435 13.8215 7.65417 13.5417 7.99935 13.5417H12.9993Z" fill="black"/>
<path fill-rule="evenodd" clip-rule="evenodd" d="M12.3743 2.08333C12.3743 1.96827 12.2811 1.875 12.166 1.875H6.33268C5.06703 1.875 4.04102 2.90102 4.04102 4.16667V15.8333C4.04102 17.099 5.06703 18.125 6.33268 18.125H14.666C15.9317 18.125 16.9577 17.099 16.9577 15.8333V7.62255C16.9577 7.50749 16.8644 7.41422 16.7493 7.41422H12.9993C12.6542 7.41422 12.3743 7.13439 12.3743 6.78922V2.08333ZM12.9993 10.2083C13.3445 10.2083 13.6243 10.4882 13.6243 10.8333C13.6243 11.1785 13.3445 11.4583 12.9993 11.4583H7.99935C7.65417 11.4583 7.37435 11.1785 7.37435 10.8333C7.37435 10.4882 7.65417 10.2083 7.99935 10.2083H12.9993ZM12.9993 13.5417C13.3445 13.5417 13.6243 13.8215 13.6243 14.1667C13.6243 14.5118 13.3445 14.7917 12.9993 14.7917H7.99935C7.65417 14.7917 7.37435 14.5118 7.37435 14.1667C7.37435 13.8215 7.65417 13.5417 7.99935 13.5417H12.9993Z" fill="url(#paint0_radial_1534_238)"/>
<path d="M13.6243 2.35345C13.6243 2.1997 13.7849 2.10208 13.9045 2.19866C14.0053 2.28 14.0958 2.3753 14.1731 2.48296L16.6841 5.98121C16.7413 6.06085 16.6793 6.16422 16.5813 6.16422H13.8327C13.7176 6.16422 13.6243 6.07094 13.6243 5.95588V2.35345Z" fill="black"/>
<path d="M13.6243 2.35345C13.6243 2.1997 13.7849 2.10208 13.9045 2.19866C14.0053 2.28 14.0958 2.3753 14.1731 2.48296L16.6841 5.98121C16.7413 6.06085 16.6793 6.16422 16.5813 6.16422H13.8327C13.7176 6.16422 13.6243 6.07094 13.6243 5.95588V2.35345Z" fill="url(#paint1_radial_1534_238)"/>
<defs>
<radialGradient id="paint0_radial_1534_238" cx="0" cy="0" r="1" gradientUnits="userSpaceOnUse" gradientTransform="translate(4 17.75) rotate(-57.3595) scale(90.8474 325.338)">
<stop stop-color="#7D42FB"/>
<stop offset="1" stop-color="#2ED6E1"/>
</radialGradient>
<radialGradient id="paint1_radial_1534_238" cx="0" cy="0" r="1" gradientUnits="userSpaceOnUse" gradientTransform="translate(4 17.75) rotate(-57.3595) scale(90.8474 325.338)">
<stop stop-color="#7D42FB"/>
<stop offset="1" stop-color="#2ED6E1"/>
</radialGradient>
</defs>
</svg>
